<?xml version="1.0" encoding="UTF-8" standalone="no"?>
<!-- Created with Inkscape (http://www.inkscape.org/) -->
<svg
   xmlns:svg="http://www.w3.org/2000/svg"
   xmlns="http://www.w3.org/2000/svg"
   version="1.0"
   width="137.2"
   height="106.7"
   id="svg2">
  <defs
     id="defs23" />
  <g
     transform="translate(0,-945.66217)"
     id="g4">
    <path
       d="M 22.643546,1016.9401 C 37.131925,1028.2946 52.213397,1030.8751 68.142141,1029.3267"
       style="stroke:#3465a4;stroke-width:6"
       id="path6" />
    <path
       d="M 68.732157,1029.05 C 88.317393,1028.7706 102.84419,1025.5107 114.38781,1020.5744"
       style="stroke:#3465a4;stroke-width:6"
       id="path8" />
    <rect
       width="68.599998"
       height="106.7"
       x="0"
       y="945.66217"
       style="fill:#204a87;fill-opacity:1"
       id="rect10" />
    <rect
       width="68.599998"
       height="106.7"
       x="68.599998"
       y="945.66217"
       style="fill:#729fcf;fill-opacity:1"
       id="rect12" />
    <path
       d="M 37.5,963.36218 L 37.5,979.46218"
       style="stroke:#3465a4;stroke-width:6"
       id="path14" />
    <path
       d="M 95.899992,963.36218 L 95.899992,979.46218"
       id="path16" />
    <path
       d="M 24.798178,1019.1221 C 24.798178,1019.1221 42.209665,1030.7297 68.590705,1029.6745 C 94.971746,1028.6192 112.91085,1020.1773 112.91085,1020.1773"
       style="fill:none;stroke:#3465a4;stroke-width:6;stroke-linecap:butt;stroke-linejoin:miter;stroke-miterlimit:4;stroke-dasharray:none;stroke-opacity:1"
       id="path18" />
    <path
       d="M 24.798178,1019.1221 C 24.798178,1019.1221 42.209665,1030.7297 68.590705,1029.6745"
       style="fill:none;stroke:#2e3436;stroke-width:6;stroke-linecap:butt;stroke-linejoin:miter;stroke-miterlimit:4;stroke-dasharray:none;stroke-opacity:1"
       id="path20" />
    <path
       d="M 95.75,963.36218 L 95.75,979.46218"
       style="stroke:#2e3436;stroke-width:6"
       id="path7117" />
  </g>
</svg>
