<?xml version="1.0" encoding="UTF-8" standalone="no"?>
<svg
   xmlns:dc="http://purl.org/dc/elements/1.1/"
   xmlns:cc="http://creativecommons.org/ns#"
   xmlns:rdf="http://www.w3.org/1999/02/22-rdf-syntax-ns#"
   xmlns:svg="http://www.w3.org/2000/svg"
   xmlns="http://www.w3.org/2000/svg"
   xmlns:sodipodi="http://sodipodi.sourceforge.net/DTD/sodipodi-0.dtd"
   xmlns:inkscape="http://www.inkscape.org/namespaces/inkscape"
   version="1.1"
   height="153"
   width="174"
   id="svg2"
   inkscape:version="0.91 r13725"
   sodipodi:docname="Windows logo 2002–2012-present blue.svg">
  <metadata
     id="metadata16">
    <rdf:RDF>
      <cc:Work
         rdf:about="">
        <dc:format>image/svg+xml</dc:format>
        <dc:type
           rdf:resource="http://purl.org/dc/dcmitype/StillImage" />
        <dc:title></dc:title>
      </cc:Work>
    </rdf:RDF>
  </metadata>
  <defs
     id="defs14" />
  <sodipodi:namedview
     pagecolor="#ffffff"
     bordercolor="#666666"
     borderopacity="1"
     objecttolerance="10"
     gridtolerance="10"
     guidetolerance="10"
     inkscape:pageopacity="0"
     inkscape:pageshadow="2"
     inkscape:window-width="1920"
     inkscape:window-height="986"
     id="namedview12"
     showgrid="false"
     inkscape:zoom="2.3257761"
     inkscape:cx="133.10988"
     inkscape:cy="80.623175"
     inkscape:window-x="0"
     inkscape:window-y="27"
     inkscape:window-maximized="1"
     inkscape:current-layer="svg2" />
  <path
     d="m 168.41,21.125 c -32.996,13.642 -48.861,5.973 -63.16,-3.65 L 88.972,73.937 c 14.285,9.678 31.531,17.635 63.188,3.463 l 16.25,-56.275 z"
     style="fill:#00b4f1;fill-opacity:1"
     id="path4"
     inkscape:connector-curvature="0" />
  <path
     style="fill:#00b4f1;"
     d="m63.142,134.63c-14.331-9.645-29.91-17.578-62.984-3.902l16.195-56.568c33.081-13.678,48.973-5.938,63.29,3.766l-16.501,56.703z"
     id="path6" />
  <path
     d="m 81.784939,70.171046 c -8.628,-5.81 -17.907,-11.233 -31.085,-11.333 -8.695,-0.067 -19.045,2.403 -32.184,7.836 l 16.283,-56.422 c 33.059,-13.6690003 48.938,-5.9330003 63.245,3.764 l -16.259,56.155 z"
     style="fill:#00b4f1;fill-opacity:1"
     id="path8"
     inkscape:connector-curvature="0" />
  <path
     d="m 86.227,81.369 c 14.313,9.637 30.212,17.313 63.243,3.66 l -16.281,56.234 c -33.037,13.664 -48.903,5.926 -63.201,-3.77 L 86.227,81.369 Z"
     style="fill:#00b4f1;fill-opacity:1"
     id="path10"
     inkscape:connector-curvature="0" />
</svg>
